<svg height="512" viewBox="0 0 512 512" width="512" xmlns="http://www.w3.org/2000/svg"><g id="flat"><path d="m468.145 392.232a122.919 122.919 0 0 0 -54.968-47.467l-93.177-40.765h-128l-93.177 40.765a122.919 122.919 0 0 0 -54.968 47.467 130.625 130.625 0 0 0 -19.855 69.231v26.537h464v-26.537a130.625 130.625 0 0 0 -19.855-69.231z" fill="#0296e5"/><path d="m80 355.05v132.95h-56v-26.54a130.527 130.527 0 0 1 19.86-69.23 122.689 122.689 0 0 1 36.14-37.18z" fill="#0bafea"/><path d="m488 461.46v26.54h-56v-132.95a122.689 122.689 0 0 1 36.14 37.18 130.587 130.587 0 0 1 19.86 69.23z" fill="#0bafea"/><path d="m296 488 24-184h-128l24 184z" fill="#cbcbcb"/><path d="m216.636 232-.636 48 40 24 40-24-.636-48z" fill="#f6bb92"/><path d="m192 184-8.1-2.7a23.246 23.246 0 0 1 -15.9-22.054 23.245 23.245 0 0 1 23.246-23.246h.754z" fill="#f6bb92"/><path d="m320 184 8.105-2.7a23.246 23.246 0 0 0 15.895-22.054 23.245 23.245 0 0 0 -23.246-23.246h-.754z" fill="#f6bb92"/><path d="m240 360h32v128h-32z" fill="#0a6fa2"/><path d="m295.364 245.563a51.241 51.241 0 0 1 -39.364 18.437 51.241 51.241 0 0 1 -39.364-18.437 106.286 106.286 0 0 1 -24.636-68.045v-49.518h128v49.518a106.286 106.286 0 0 1 -24.636 68.045z" fill="#fdc9a6"/><path d="m320 40-64-16-64 16-32 32 32 56h128l32-56z" fill="#0a6fa2"/><g fill="#834b10"><path d="m264 200h-16a8 8 0 0 1 -7.891-9.315l8-48a8 8 0 0 1 15.782 2.63l-6.447 38.685h6.556a8 8 0 0 1 0 16z"/><circle cx="222" cy="160" r="10"/><circle cx="286" cy="160" r="10"/><path d="m256 360a128 128 0 0 0 -128 128h32a96 96 0 0 1 192 0h32a128 128 0 0 0 -128-128z"/></g><path d="m80 355.05v132.95h-56v-26.54a130.527 130.527 0 0 1 19.86-69.23 122.689 122.689 0 0 1 36.14-37.18z" fill="#0284c9"/><path d="m488 461.46v26.54h-56v-132.95a122.689 122.689 0 0 1 36.14 37.18 130.587 130.587 0 0 1 19.86 69.23z" fill="#0284c9"/><path d="m122.117 448 17.647-17.647a32.438 32.438 0 0 0 8.532-15.07 18.738 18.738 0 0 0 -18.179-23.283l-24 24-12.617 8.409a39.884 39.884 0 0 0 -15.71 20.573 39.876 39.876 0 0 0 -.856 22.285l5.183 20.733h80l5.47-16.411a8 8 0 0 0 -5.059-10.119z" fill="#eaeae8"/><path d="m208 272 48 32-24 40-40-40z" fill="#eaeae8"/><path d="m304 272-48 32 24 40 40-40z" fill="#eaeae8"/><path d="m232 344 8 16h32l8-16-24-40z" fill="#0a6fa2"/><path d="m389.883 448-17.647-17.647a32.438 32.438 0 0 1 -8.532-15.07 18.738 18.738 0 0 1 18.179-23.283l24 24 12.614 8.409a39.884 39.884 0 0 1 15.713 20.573 39.876 39.876 0 0 1 .856 22.285l-5.183 20.733h-80l-5.47-16.411a8 8 0 0 1 5.059-10.119z" fill="#eaeae8"/><path d="m311.3 135.411a192.428 192.428 0 0 1 -110.59 0 34.666 34.666 0 0 1 -24.71-33.203v-6.208l53.232-5.323a269.029 269.029 0 0 1 53.536 0l53.232 5.323v6.208a34.666 34.666 0 0 1 -24.7 33.203z" fill="#0296e5"/><circle cx="256" cy="80" fill="#fbb540" r="24"/><path d="m256 226.647a61.441 61.441 0 0 1 -19.165-3.047 8 8 0 0 1 5-15.2 45.671 45.671 0 0 0 28.335 0 8 8 0 0 1 5 15.2 61.492 61.492 0 0 1 -19.17 3.047z" fill="#834b10"/></g></svg>