<svg height="512" viewBox="0 0 64 64" width="512" xmlns="http://www.w3.org/2000/svg"><g id="Car"><path d="m61 30.69v12.31a2.006 2.006 0 0 1 -2 2h-54a2.006 2.006 0 0 1 -2-2v-14a2.006 2.006 0 0 1 2-2h6.49a1.993 1.993 0 0 0 1.92-1.45l3.18-11.1a1.992 1.992 0 0 1 1.92-1.45h24.08a1.984 1.984 0 0 1 1.88 1.33l4.13 11.56a2 2 0 0 0 1.56 1.3l9.17 1.53a2.006 2.006 0 0 1 1.67 1.97z" fill="#ffeb99"/><path d="m61 30.69v12.31a2.006 2.006 0 0 1 -2 2h-4a2.006 2.006 0 0 0 2-2v-12.31a2.006 2.006 0 0 0 -1.67-1.97l-9.17-1.53a2 2 0 0 1 -1.56-1.3l-4.13-11.56a1.984 1.984 0 0 0 -1.88-1.33h4a1.984 1.984 0 0 1 1.88 1.33l4.13 11.56a2 2 0 0 0 1.56 1.3l9.17 1.53a2.006 2.006 0 0 1 1.67 1.97z" fill="#ffde55"/><path d="m41 17 4 10h-13v-10z" fill="#bdfdff"/><path d="m45 27h-4l-4-10h4z" fill="#46f8ff"/><path d="m32 17v10h-15l3.02-10z" fill="#bdfdff"/><path d="m28 17h4v10h-4z" fill="#46f8ff"/><circle cx="13" cy="45" fill="#898890" r="6"/><path d="m19 45a6 6 0 0 1 -6 6 5.47 5.47 0 0 1 -1-.09 5.993 5.993 0 0 0 0-11.82 5.47 5.47 0 0 1 1-.09 6 6 0 0 1 6 6z" fill="#57565c"/><circle cx="13" cy="45" fill="#c6c5ca" r="2"/><path d="m15 45a2 2 0 0 1 -3 1.73 2 2 0 0 0 0-3.46 2 2 0 0 1 3 1.73z" fill="#acabb1"/><circle cx="51" cy="45" fill="#898890" r="6"/><path d="m57 45a6 6 0 0 1 -6 6 5.47 5.47 0 0 1 -1-.09 5.993 5.993 0 0 0 0-11.82 5.47 5.47 0 0 1 1-.09 6 6 0 0 1 6 6z" fill="#57565c"/><circle cx="51" cy="45" fill="#c6c5ca" r="2"/><path d="m53 45a2 2 0 0 1 -3 1.73 2 2 0 0 0 0-3.46 2 2 0 0 1 3 1.73z" fill="#acabb1"/><path d="m61 31v4h-4a2.006 2.006 0 0 1 -2-2 2.015 2.015 0 0 1 2-2z" fill="#e0e0e2"/><path d="m57 31h4v4h-4z" fill="#c6c5ca"/><path d="m59.49 27.74-9.17-1.53a1 1 0 0 1 -.77-.65l-4.13-11.57a3.012 3.012 0 0 0 -2.83-1.99h-24.08a3.018 3.018 0 0 0 -2.89 2.18l-3.04 10.65-5.79-7.44a.985.985 0 0 0 -.79-.39h-4v2h3.51l5.45 7h-5.96a3.009 3.009 0 0 0 -3 3v14a3.009 3.009 0 0 0 3 3h1.08a6.991 6.991 0 0 0 13.84 0h24.16a6.991 6.991 0 0 0 13.84 0h1.08a3.009 3.009 0 0 0 3-3v-12.31a2.978 2.978 0 0 0 -2.51-2.95zm-41.59 18.26a5.038 5.038 0 0 1 -.73 1.75l-.63-.63-1.42 1.42.63.63a5.038 5.038 0 0 1 -1.75.73v-.9h-2v.9a5.038 5.038 0 0 1 -1.75-.73l.63-.63-1.42-1.42-.63.63a5.038 5.038 0 0 1 -.73-1.75h.9v-2h-.9a5.038 5.038 0 0 1 .73-1.75l.63.63 1.42-1.42-.63-.63a5.038 5.038 0 0 1 1.75-.73v.9h2v-.9a5.038 5.038 0 0 1 1.75.73l-.63.63 1.42 1.42.63-.63a5.038 5.038 0 0 1 .73 1.75h-.9v2zm13.1-20h-12.65l2.41-8h10.24zm24.9 20a5.038 5.038 0 0 1 -.73 1.75l-.63-.63-1.42 1.42.63.63a5.038 5.038 0 0 1 -1.75.73v-.9h-2v.9a5.038 5.038 0 0 1 -1.75-.73l.63-.63-1.42-1.42-.63.63a5.038 5.038 0 0 1 -.73-1.75h.9v-2h-.9a5.038 5.038 0 0 1 .73-1.75l.63.63 1.42-1.42-.63-.63a5.038 5.038 0 0 1 1.75-.73v.9h2v-.9a5.038 5.038 0 0 1 1.75.73l-.63.63 1.42 1.42.63-.63a5.038 5.038 0 0 1 .73 1.75h-.9v2zm4.1-8h-3v2h3v3a1 1 0 0 1 -1 1h-1.08a6.991 6.991 0 0 0 -13.84 0h-11.08v-16h12a1 1 0 0 0 .93-1.37l-4-10a1 1 0 0 0 -.93-.63h-20.98a1.008 1.008 0 0 0 -.96.71l-3.02 10a1.017 1.017 0 0 0 .16.89 1 1 0 0 0 .8.4h14v16h-11.08a6.991 6.991 0 0 0 -13.84 0h-1.08a1 1 0 0 1 -1-1v-6h3v-2h-3v-2h3v-2h-3v-2a1 1 0 0 1 1-1h6.49a3.018 3.018 0 0 0 2.89-2.18l3.17-11.1a1 1 0 0 1 .96-.72h24.08a1.006 1.006 0 0 1 .94.66l4.13 11.57a3.018 3.018 0 0 0 2.34 1.95l9.17 1.53a.959.959 0 0 1 .54.29h-2.71a3 3 0 0 0 0 6h3zm-27-12v-8h7.32l3.2 8zm27 8h-3a1 1 0 0 1 0-2h3z"/><path d="m35 30h4v2h-4z"/><path d="m13 30h4v2h-4z"/><path d="m13 42a3 3 0 1 0 3 3 3 3 0 0 0 -3-3zm0 4a1 1 0 1 1 1-1 1 1 0 0 1 -1 1z"/><path d="m51 42a3 3 0 1 0 3 3 3 3 0 0 0 -3-3zm0 4a1 1 0 1 1 1-1 1 1 0 0 1 -1 1z"/></g></svg>